# xmcd CD database file
#
# Track frame offsets:
#	183
#	19280
#	46373
#	63953
#	77035
#	105453
#	118325
#	135883
#	149198
#	161328
#	173718
#	195360
#	210000
#	219560
#	232840
#	245548
#	254588
#
# Disc length: 3571 seconds
#
# Revision: 1
# Processed by: cddbd v1.5.2PL0 Copyright (c) Steve Scherf et al.
# Submitted via: CDex 1.70beta2
#
DISCID=e60df111
DTITLE=Ray Charles - Bella Musica
DYEAR=1995
DGENRE=Jazz
TTITLE0=I Can't Stop Loving You
TTITLE1=I've Got A Woman
TTITLE2=What" D I Say
TTITLE3=Makin' Believe
TTITLE4=Makin' Whoopee
TTITLE5=Unchain My Heart
TTITLE6=Ruby
TTITLE7=Crying Time
TTITLE8=Together Again
TTITLE9=Mess Around
TTITLE10=Georgia On My Mind
TTITLE11=Born To Loose
TTITLE12=Busted
TTITLE13=Take These Chains From My Heart
TTITLE14=Yesterday
TTITLE15=Hit The Road Jack
TTITLE16=Eleanor Rigby
EXTD=YEAR: 1995
EXTT0=
EXTT1=
EXTT2=
EXTT3=
EXTT4=
EXTT5=
EXTT6=
EXTT7=
EXTT8=
EXTT9=
EXTT10=
EXTT11=
EXTT12=
EXTT13=
EXTT14=
EXTT15=
EXTT16=
PLAYORDER=
